<svg width="64" height="64" viewBox="0 0 64 64" fill="none" xmlns="http://www.w3.org/2000/svg">
<path d="M58 10H6C5.46957 10 4.96086 10.2107 4.58579 10.5858C4.21071 10.9609 4 11.4696 4 12V52C4 52.5304 4.21071 53.0391 4.58579 53.4142C4.96086 53.7893 5.46957 54 6 54H58C58.5304 54 59.0391 53.7893 59.4142 53.4142C59.7893 53.0391 60 52.5304 60 52V12C60 11.4696 59.7893 10.9609 59.4142 10.5858C59.0391 10.2107 58.5304 10 58 10ZM33.2275 35.5788C32.8765 35.8516 32.4446 35.9997 32 35.9997C31.5554 35.9997 31.1235 35.8516 30.7725 35.5788L11.1938 20.3512L13.6488 17.1938L32 31.4662L50.3512 17.1938L52.8063 20.3512L33.2275 35.5788Z" fill="black"/>
</svg>
