<svg width="58" height="58" viewBox="0 0 58 58" fill="none" xmlns="http://www.w3.org/2000/svg">
<path d="M39.1539 17.8464C39.7455 17.8464 40.3129 18.0815 40.7313 18.4998C41.1496 18.9182 41.3846 19.4856 41.3846 20.0772C41.3862 21.6598 41.05 23.2245 40.3986 24.6669C39.7472 26.1092 38.7956 27.3959 37.6072 28.4411C37.3896 28.6466 37.1329 28.8062 36.8524 28.9104C36.5718 29.0147 36.2732 29.0614 35.9742 29.0478C35.6752 29.0342 35.382 28.9606 35.1121 28.8313C34.8422 28.7021 34.601 28.5198 34.403 28.2954C34.2049 28.071 34.0541 27.8091 33.9594 27.5252C33.8647 27.2413 33.828 26.9412 33.8517 26.6429C33.8754 26.3445 33.9588 26.054 34.0971 25.7886C34.2354 25.5232 34.4257 25.2883 34.6566 25.0979C35.3701 24.4707 35.9414 23.6983 36.3322 22.8324C36.7231 21.9665 36.9246 21.0272 36.9231 20.0772C36.9231 19.4856 37.1581 18.9182 37.5765 18.4998C37.9948 18.0815 38.5622 17.8464 39.1539 17.8464Z" fill="black"/>
<path fill-rule="evenodd" clip-rule="evenodd" d="M29 0C12.9831 0 0 12.9831 0 29C0 45.0169 12.9831 58 29 58C45.0169 58 58 45.0169 58 29C58 12.9831 45.0169 0 29 0ZM6.91538 39.7077C9.35513 44.7426 13.4422 48.7925 18.4991 51.1863C23.556 53.58 29.2791 54.1738 34.7197 52.8692C34.3015 51.7554 33.5536 50.7957 32.5757 50.1181C31.5979 49.4405 30.4366 49.0773 29.2469 49.0769C28.5543 49.0771 27.8842 48.8315 27.3558 48.3837C26.8274 47.936 26.4752 47.3152 26.3617 46.632L26.1446 45.3322C25.865 43.6517 26.8882 42.0307 28.5241 41.5637L31.4687 40.7249C32.7388 40.3591 33.7976 39.4816 34.3895 38.2978L34.4966 38.0807C34.8029 37.4678 35.2505 36.9366 35.8026 36.5307C36.3546 36.1249 36.9952 35.8561 37.6716 35.7466C38.3479 35.6371 39.0406 35.6899 39.6925 35.9008C40.3444 36.1117 40.9369 36.4745 41.4209 36.9594L42.3846 37.9231H44.2525C45.4627 37.9228 46.6504 38.2507 47.689 38.8719C48.7276 39.4931 49.5784 40.3843 50.1507 41.4507C52.247 37.8898 53.4102 33.8572 53.5324 29.7269C53.6545 25.5965 52.7317 21.5022 50.8494 17.8237C48.9671 14.1452 46.1864 11.0015 42.7651 8.68435C39.3438 6.36718 35.3927 4.9515 31.2784 4.56862C31.4092 5.3479 31.8137 6.06472 32.4354 6.57928L35.612 9.22646C36.9267 10.324 37.2033 12.2306 36.2545 13.6583L34.7375 15.9366C33.9115 17.1746 32.6964 18.1019 31.2843 18.5719L30.859 18.7147C30.379 18.8751 29.9425 19.1441 29.5834 19.5006C29.2243 19.8571 28.9521 20.2916 28.7881 20.7703C28.6241 21.2491 28.5727 21.7592 28.6378 22.261C28.7029 22.7629 28.8828 23.243 29.1636 23.664C29.4224 24.0529 29.5956 24.4923 29.6717 24.9532C29.7478 25.4141 29.725 25.8859 29.6049 26.3373C29.4848 26.7887 29.2701 27.2094 28.9751 27.5716C28.68 27.9337 28.3114 28.229 27.8935 28.4378L20.0769 32.3462L21.3351 35.496C21.5888 36.1357 21.6019 36.8458 21.372 37.4945C21.142 38.1432 20.6846 38.6864 20.0845 39.0235C19.4845 39.3606 18.7826 39.4686 18.109 39.3275C17.4353 39.1864 16.8358 38.8057 16.4214 38.2562L14.4018 35.5614C14.0596 35.1053 13.6064 34.7442 13.0853 34.5125C12.5643 34.2807 11.9927 34.1859 11.4247 34.2372C10.8567 34.2885 10.3113 34.484 9.84016 34.8053C9.36902 35.1266 8.98781 35.563 8.73272 36.073L6.91538 39.7077Z" fill="black"/>
</svg>
